<svg enable-background="new 0 0 1080 1080" height="1080" viewBox="0 0 1080 1080" width="1080" xmlns="http://www.w3.org/2000/svg"><path d="m987.6 524.3c46.6-52.6 73.5-119.7 76-189.9 6.4-175.1-137.4-320.1-312.6-315.1-66.6 1.8-130.7 25.6-182.4 67.7-30.2 24.3-71.9 28.2-106 9.9-47.7-25.4-104.8-35.5-164.6-23.8-96.5 18.9-172 94.2-191.1 190.6-8.3 42.1-5.8 82.8 5.2 119.9 20.7 69.7 12.8 144.5-21 208.9-29.6 56.3-41.2 123.5-27.2 194 22.5 112.5 110 200.8 222.4 224 51.9 10.7 102 7.4 147.3-6.6 66.1-20.5 137.9-13.7 198.1 20.4 49.6 28 109.9 39.2 173.2 26 84.8-17.7 169.6-102.5 187.2-187.4 12.8-61.5 2.5-120-23.7-168.7-29.7-55.1-22.2-123 19.2-169.9z" fill="#00acdc"/><path d="m133.2 485.9 7.1-4.3c1.9-1.1 4.4-.5 5.5 1.4.2.3.3.6.4 1l1.8 7.2c.5 2.1-.8 4.1-2.8 4.7l-6 1.6c-1.7.5-3.5-.2-4.4-1.7l-2.9-4.6c-1.2-1.6-.6-4.1 1.3-5.3-.1.1 0 .1 0 0z" fill="#ffb400"/><path d="m967.5 809.5.2-8.3c.1-2.2 1.9-3.9 4.2-3.8.4 0 .7.1 1.1.2l7.1 2.4c2 .7 3.1 2.9 2.5 4.9l-1.8 6c-.5 1.7-2.1 2.8-3.8 2.8h-5.4c-2.4-.2-4.2-2-4.1-4.2z" fill="#ffb400"/><path d="m700.7 220.1-8-2.3c-2.1-.7-3.3-2.9-2.6-5 .1-.4.3-.7.5-1l4.2-6.2c1.2-1.8 3.6-2.3 5.4-1.2l5.3 3.3c1.5.9 2.2 2.7 1.7 4.4l-1.5 5.2c-.7 2.1-2.9 3.3-5 2.8z" fill="#ffb400"/><path d="m236.8 359.2 5.3 6.4c1.4 1.7 1.1 4.2-.6 5.6-.3.2-.6.4-.9.6l-6.9 2.9c-2 .8-4.2-.1-5.1-2l-2.6-5.7c-.7-1.6-.3-3.5 1-4.6l4.1-3.5c1.7-1.6 4.2-1.5 5.7.3 0-.1 0-.1 0 0z" fill="#fff"/><path d="m349.5 593.8-6.8 4.7c-1.8 1.2-4.3.7-5.5-1.1-.2-.3-.3-.6-.5-.9l-2.2-7.1c-.6-2 .5-4.2 2.5-4.9l5.9-2c1.7-.6 3.5 0 4.5 1.4l3.2 4.4c1.1 1.8.7 4.3-1.1 5.5z" fill="#fff"/><path d="m123.6 832.7-4.4 7c-1.2 1.8-3.7 2.4-5.5 1.1-.3-.2-.6-.4-.8-.7l-4.8-5.7c-1.3-1.6-1.2-4 .4-5.5l4.6-4.2c1.3-1.2 3.2-1.3 4.7-.4l4.6 2.8c1.8 1.3 2.4 3.7 1.2 5.6z" fill="#fff"/><path d="m455.6 801.8-4.7 6.8c-1.2 1.8-3.7 2.2-5.5 1-.3-.2-.6-.5-.9-.8l-4.6-5.9c-1.3-1.7-1-4.1.6-5.5l4.8-4c1.4-1.1 3.3-1.2 4.7-.2l4.5 3c1.9 1.3 2.3 3.8 1.1 5.6z" fill="#fff"/><path d="m752.6 901.7 1.9 8.1c.5 2.2-.9 4.3-3.1 4.7-.4.1-.7.1-1.1.1l-7.4-.6c-2.1-.2-3.7-2-3.6-4.1l.3-6.2c.1-1.7 1.3-3.2 3-3.7l5.3-1.3c2.1-.5 4.2.9 4.7 3z" fill="#fff"/><g fill="#10294c"><path d="m327.8 104.8-7.4 3.8c-1.9 1-4.3.2-5.3-1.7-.2-.4-.3-.8-.4-1.2l-1.2-7.3c-.3-2.1 1.1-4.1 3.1-4.5l6.1-1.2c1.7-.3 3.4.5 4.3 2l2.5 4.8c1 1.8.2 4.2-1.7 5.3z"/><path d="m216.3 805.2-2.6-7.9c-.7-2.1.4-4.3 2.5-5 .4-.1.8-.2 1.2-.2l7.4-.1c2.1 0 3.9 1.6 4 3.8l.3 6.2c.1 1.7-1 3.3-2.6 3.9l-5.1 1.8c-2.1.7-4.4-.4-5.1-2.5z"/><path d="m995.3 349.5-2.6-7.9c-.7-2.1.5-4.4 2.6-5 .3-.1.7-.2 1.1-.2l7.5-.1c2.1 0 3.9 1.6 4 3.8l.3 6.2c.1 1.8-1 3.4-2.6 3.9l-5.1 1.8c-2.2.7-4.5-.4-5.2-2.5z"/><path d="m819.4 1006.6 7.5-3.6c2-.9 4.4-.1 5.3 2 .2.3.3.7.3 1l1.1 7.4c.3 2.1-1.1 4.1-3.2 4.5l-6.1 1.1c-1.7.3-3.4-.6-4.2-2.1l-2.4-4.9c-1.1-2-.3-4.4 1.7-5.4z"/><path d="m764 583.8-.2-8.3c0-2.2 1.8-4 4-4 .4 0 .7 0 1.1.1l7.2 2.1c2 .6 3.2 2.7 2.7 4.8l-1.5 6c-.4 1.7-1.9 2.9-3.7 3l-5.4.2c-2.3 0-4.1-1.7-4.2-3.9z"/><path d="m159.6 404.5-3.3 4.3c-1.5 2-1.2 4.8.8 6.4.4.3.8.5 1.3.7l6.2 2.2c2.4.8 5-.4 5.8-2.8.4-1.1.3-2.3-.2-3.4l-2.9-6.4c-1-2.3-3.8-3.3-6-2.3-.7.3-1.3.7-1.7 1.3z"/><path d="m420.8 936.9 1 5.3c.5 2.5 2.9 4.1 5.3 3.6.5-.1.9-.3 1.4-.5l5.7-3.2c2.2-1.2 3-4 1.8-6.2-.6-1-1.5-1.8-2.7-2.1l-6.8-2c-2.4-.7-4.9.7-5.6 3.1-.1.6-.2 1.3-.1 2z"/><path d="m569.9 622-5.3-.5c-2.5-.2-4.7 1.6-4.9 4.1 0 .5 0 1 .1 1.5l1.5 6.4c.6 2.4 3 4 5.5 3.4 1.1-.3 2.1-1 2.8-1.9l3.9-5.9c1.4-2.1.8-4.9-1.3-6.3-.8-.5-1.6-.7-2.3-.8z"/><path d="m914.9 95.8-2.4 4.8c-1.1 2.3-.2 5 2 6.1.4.2.9.4 1.4.4l6.5 1c2.5.4 4.8-1.3 5.2-3.8.2-1.2-.1-2.4-.8-3.3l-4.1-5.8c-1.4-2.1-4.3-2.5-6.3-1.1-.6.5-1.1 1-1.5 1.7z"/><path d="m628.5 150.2-2.2-4.9c-1-2.3-3.7-3.3-6-2.3-.4.2-.9.5-1.2.8l-4.9 4.4c-1.9 1.7-2 4.6-.3 6.4.8.9 1.9 1.4 3 1.5l7 .5c2.5.2 4.7-1.7 4.9-4.2.1-.8 0-1.6-.3-2.2z"/><path d="m949.6 862.7-5.4.2c-2.5.1-4.5 2.2-4.4 4.7 0 .5.1 1 .3 1.4l2.3 6.2c.9 2.4 3.5 3.6 5.8 2.7 1.1-.4 2-1.2 2.5-2.3l3.1-6.3c1.1-2.3.2-5-2.1-6.1-.6-.4-1.3-.6-2.1-.5z"/></g><path d="m174.4 214.8-5.4-.2c-2.5-.1-4.6 1.9-4.7 4.4 0 .5 0 1 .2 1.4l1.9 6.3c.7 2.4 3.2 3.8 5.7 3.1 1.1-.3 2.1-1.1 2.7-2.1l3.5-6.1c1.3-2.2.5-5-1.7-6.2-.7-.4-1.4-.6-2.2-.6z" fill="#fff"/><path d="m308 972.7-5.4-.2c-2.5-.1-4.6 1.9-4.7 4.4 0 .5 0 1 .2 1.4l1.9 6.3c.7 2.4 3.2 3.8 5.6 3.1 1.1-.3 2.1-1.1 2.7-2.1l3.5-6.1c1.3-2.2.5-5-1.7-6.2-.6-.3-1.3-.6-2.1-.6z" fill="#fff"/><path d="m640.8 695.1-1 5.3c-.5 2.5 1.1 4.9 3.6 5.3.5.1.9.1 1.4.1l6.5-.8c2.5-.3 4.2-2.6 3.9-5.1-.2-1.1-.7-2.1-1.6-2.9l-5.5-4.4c-1.9-1.6-4.8-1.3-6.4.7-.5.4-.8 1.1-.9 1.8z" fill="#fff"/><path d="m952.7 288.2-4.5-2.9c-2.1-1.4-4.9-.8-6.3 1.3-.3.4-.5.9-.6 1.3l-1.7 6.4c-.6 2.4.8 4.9 3.3 5.6 1.1.3 2.3.1 3.4-.4l6.2-3.4c2.2-1.2 3-4 1.8-6.2-.4-.7-1-1.3-1.6-1.7z" fill="#fff"/><path d="m229.5 594-4.3-3.3c-2-1.5-4.9-1.1-6.4.9-.3.4-.5.8-.7 1.3l-2.1 6.1c-.8 2.4.4 5 2.8 5.8 1.1.4 2.3.3 3.4-.2l6.4-2.9c2.3-1.1 3.2-3.8 2.2-6.1-.3-.6-.8-1.2-1.3-1.6z" fill="#ffb400"/><path d="m81.2 787 3.1-4.4c1.4-2.1.9-4.9-1.2-6.3-.4-.3-.8-.5-1.3-.6l-6.3-1.9c-2.4-.7-4.9.7-5.7 3.1-.3 1.1-.2 2.3.3 3.4l3.2 6.3c1.2 2.2 3.9 3.1 6.1 1.9.9-.4 1.4-.9 1.8-1.5z" fill="#ffb400"/><path d="m524.7 835.9 2.6-4.7c1.2-2.2.4-5-1.8-6.2-.4-.2-.9-.4-1.4-.5l-6.5-1.2c-2.5-.4-4.8 1.2-5.3 3.7-.2 1.2 0 2.4.7 3.3l3.9 5.9c1.4 2.1 4.2 2.7 6.3 1.3.6-.4 1.1-1 1.5-1.6z" fill="#ffb400"/><path d="m790.7 992.2-4.2-3.4c-2-1.6-4.8-1.3-6.4.7-.3.4-.5.8-.7 1.3l-2.3 6.2c-.9 2.4.3 5 2.7 5.8 1.1.4 2.3.4 3.3-.1l6.5-2.8c2.3-1 3.4-3.6 2.4-6-.3-.6-.7-1.2-1.3-1.7z" fill="#ffb400"/><path d="m754.6 515.8 4.7-2.5c2.2-1.2 3.1-4 1.9-6.2-.2-.4-.5-.8-.9-1.1l-4.8-4.5c-1.8-1.7-4.7-1.7-6.4.2-.8.9-1.3 2-1.3 3.2v7.1c0 2.5 2.1 4.6 4.6 4.5.8-.1 1.6-.3 2.2-.7z" fill="#ffb400"/><path d="m402.7 186.1 5.4.5c2.5.2 4.7-1.6 4.9-4.1 0-.5 0-1-.1-1.4l-1.5-6.4c-.6-2.4-3-4-5.5-3.4-1.1.3-2.1 1-2.8 2l-3.8 5.9c-1.4 2.1-.8 4.9 1.4 6.3.5.3 1.2.5 2 .6z" fill="#ffb400"/><path d="m839.4 141 .9 5.3c.4 2.5 2.8 4.2 5.3 3.7.5-.1.9-.2 1.4-.5l5.8-3.1c2.2-1.2 3.1-3.9 1.9-6.2-.5-1-1.5-1.8-2.6-2.2l-6.7-2.2c-2.4-.8-5 .5-5.8 2.9-.2.8-.3 1.6-.2 2.3z" fill="#ffb400"/><path d="m185.7 503.7 1-6.4c.3-2.1 1.8-3.7 3.9-4.2l1.9-.5c2.8-.7 5.6 1 6.4 3.8.2.9.2 1.9-.1 2.8l-2.2 7.3c-.8 2.8-3.7 4.3-6.5 3.5-.4-.1-.8-.3-1.2-.5l-.7-.4c-1.8-1.2-2.8-3.3-2.5-5.4z" fill="#fff"/><path d="m916.8 483-3.6-5.3c-1.2-1.7-1.2-4-.1-5.7l1-1.7c1.5-2.4 4.8-3.2 7.2-1.6.8.5 1.5 1.2 1.9 2.1l3.4 6.8c1.3 2.6.2 5.7-2.3 7-.4.2-.8.3-1.2.4l-.8.2c-2.1.5-4.3-.4-5.5-2.2z" fill="#fff"/><path d="m668.1 257.2-6.3-1.2c-2.1-.4-3.7-2-4.1-4l-.5-1.9c-.6-2.8 1.2-5.6 4-6.2.9-.2 1.9-.2 2.8.1l7.2 2.4c2.7.9 4.2 3.9 3.3 6.6-.1.4-.3.8-.5 1.1l-.5.7c-1.1 1.9-3.2 2.8-5.4 2.4z" fill="#fff"/><path d="m152.1 620 5 4.1c1.6 1.3 2.3 3.5 1.7 5.5l-.6 1.9c-.8 2.8-3.7 4.4-6.4 3.6-.9-.3-1.8-.8-2.4-1.5l-5.2-5.6c-2-2.1-1.8-5.4.3-7.4.3-.3.7-.5 1-.7l.8-.4c1.8-1.1 4.1-.9 5.8.5z" fill="#10294c"/><path d="m441.3 198.8 1.9 6.2c.6 2 0 4.2-1.6 5.5l-1.5 1.3c-2.2 1.9-5.5 1.6-7.4-.6-.6-.7-1-1.6-1.2-2.6l-1.2-7.5c-.5-2.9 1.5-5.5 4.3-6 .4-.1.8-.1 1.3-.1l.9.1c2 .2 3.8 1.6 4.5 3.7z" fill="#10294c"/><path d="m626 752-4.6 4.5c-1.5 1.5-3.7 1.9-5.6 1.2l-1.8-.7c-2.7-1.1-4-4.1-2.9-6.8.3-.9.9-1.6 1.7-2.2l6.1-4.6c2.3-1.8 5.6-1.3 7.3.9.3.3.5.7.7 1.1l.3.8c.8 2 .3 4.3-1.2 5.8z" fill="#10294c"/><path d="m820.6 430.7.9 6.4c.3 2.1-.7 4.1-2.5 5.2l-1.7 1c-2.5 1.5-5.7.7-7.2-1.8-.5-.8-.8-1.7-.8-2.7v-7.6c0-2.9 2.3-5.2 5.2-5.2.4 0 .8 0 1.3.1l.8.2c2.1.6 3.7 2.3 4 4.4z" fill="#10294c"/><path d="m201.1 260.8-5 4c-1.6 1.3-3.9 1.5-5.7.6l-1.8-.9c-2.6-1.3-3.5-4.5-2.2-7.1.4-.8 1.1-1.5 1.9-2l6.5-4c2.5-1.5 5.7-.7 7.2 1.8.2.4.4.7.5 1.1l.2.8c.7 2 .1 4.3-1.6 5.7z" fill="#ffb400"/><path d="m470 726.8-6-2.3c-1.9-.7-3.3-2.6-3.4-4.6l-.1-2c-.1-2.9 2.1-5.3 5-5.5 1 0 1.9.2 2.8.6l6.7 3.6c2.5 1.4 3.5 4.5 2.1 7.1-.2.4-.4.7-.7 1l-.6.6c-1.5 1.7-3.8 2.3-5.8 1.5z" fill="#ffb400"/><path d="m971.3 247.1-5 4c-1.6 1.3-3.9 1.5-5.7.6l-1.8-.9c-2.6-1.3-3.6-4.5-2.2-7.1.4-.8 1.1-1.6 1.9-2.1l6.5-3.9c2.5-1.5 5.7-.7 7.2 1.8.2.4.4.7.5 1.2l.3.8c.7 2 0 4.2-1.7 5.6z" fill="#ffb400"/><path d="m328.4 943.3-5.8-2.9c-1.9-.9-3-2.9-2.9-5l.1-2c.2-2.9 2.7-5.1 5.5-4.9.9.1 1.9.4 2.6.9l6.3 4.3c2.4 1.6 3 4.9 1.4 7.3-.2.4-.5.7-.8 1l-.6.6c-1.6 1.4-3.9 1.7-5.8.7z" fill="#ffb400"/><path d="m787.4 864.2-.5-6.4c-.2-2.1.9-4 2.8-5l1.7-.9c2.5-1.4 5.7-.4 7.1 2.2.4.8.7 1.8.6 2.7l-.4 7.6c-.2 2.9-2.6 5.1-5.5 4.9-.4 0-.8-.1-1.2-.2l-.8-.2c-2.2-.7-3.6-2.5-3.8-4.7z" fill="#ffb400"/><ellipse cx="1009.876" cy="585.114" fill="#00acdc" rx="39.001" ry="29.301" transform="matrix(.1822 -.9833 .9833 .1822 250.5633 1471.4834)"/><ellipse cx="1030.4" cy="669.2" fill="#00acdc" rx="16.8" ry="16.8" transform="matrix(.1602 -.9871 .9871 .1602 204.7894 1579.1011)"/><path d="m1008.7 592.9 6.7 4.9c1.8 1.3 2.1 3.8.8 5.6-.2.3-.5.5-.8.8l-6 4.5c-1.7 1.3-4.1 1-5.5-.7l-3.9-4.9c-1.1-1.4-1.1-3.3-.2-4.7l3.1-4.5c1.4-1.9 3.9-2.3 5.8-1-.1-.1 0 0 0 0z" fill="#ffb400"/><ellipse cx="64.7" cy="465.2" fill="#00acdc" rx="37.2" ry="52.5"/><path d="m55.8 478.3 1.8-5.1c.8-2.4-.4-5-2.8-5.8-.5-.2-.9-.2-1.4-.3l-6.6-.2c-2.5 0-4.6 2-4.6 4.5 0 1.2.4 2.3 1.2 3.1l4.8 5.2c1.7 1.9 4.6 2 6.4.3.5-.4 1-1 1.2-1.7z" fill="#fff"/><path d="m75.4 445.1-5.9 2.5c-1.9.8-4.1.4-5.6-1l-1.4-1.4c-2.1-2-2.2-5.3-.2-7.4.7-.7 1.5-1.2 2.4-1.4l7.3-2c2.8-.8 5.7.9 6.4 3.7.1.4.2.8.2 1.2v.9c-0 2.1-1.2 4-3.2 4.9z" fill="#10294c"/></svg>