<svg height="1074.488" viewBox="0 0 388.945 1074.488" width="388.945" xmlns="http://www.w3.org/2000/svg" xmlns:xlink="http://www.w3.org/1999/xlink"><linearGradient id="a" gradientUnits="userSpaceOnUse" x1="82.877" x2="57.797" y1="455.179" y2="388.82"><stop offset=".048" stop-color="#845947"/><stop offset=".099" stop-color="#8e6551"/><stop offset=".345" stop-color="#be9c80"/><stop offset=".558" stop-color="#e1c4a2"/><stop offset=".726" stop-color="#f7dcb7"/><stop offset=".828" stop-color="#ffe6bf"/></linearGradient><linearGradient id="b" x1="144.821" x2="118.529" xlink:href="#a" y1="482.627" y2="413.061"/><linearGradient id="c" x1="130.815" x2="80.528" xlink:href="#a" y1="438.169" y2="305.116"/><linearGradient id="d" x1="80.051" x2="54.278" xlink:href="#a" y1="568.882" y2="500.69"/><linearGradient id="e" x1="158.183" x2="153.874" xlink:href="#a" y1="298.463" y2="287.063"/><linearGradient id="f" x1="179.414" x2="149.498" xlink:href="#a" y1="629.103" y2="549.946"/><linearGradient id="g" x1="179.738" x2="154.658" xlink:href="#a" y1="537.079" y2="470.72"/><linearGradient id="h" x1="206.079" x2="179.885" xlink:href="#a" y1="448.284" y2="378.976"/><linearGradient id="i" x1="241.566" x2="231.609" xlink:href="#a" y1="568.339" y2="541.994"/><linearGradient id="j" gradientUnits="userSpaceOnUse" x1="337.992" x2="135.183" y1="1128.875" y2="592.262"><stop offset=".249" stop-color="#ac7961"/><stop offset=".44" stop-color="#be9175" stop-opacity=".934"/><stop offset=".749" stop-color="#efd2ad" stop-opacity=".754"/><stop offset=".828" stop-color="#ffe6bf" stop-opacity=".7"/></linearGradient><path d="m42.625 576.254c2.905-10.536 75.384-23.839 150.831-23.844 90.894-.007 153.861 14.731 158.615 23.844l-9.254 24.666-145.47 26.809-143.296-25.277-11.427-26.198z" fill="#876a60"/><path d="m352.07 576.247s-.01.12-.03.31l-.03.4c0 .08-.01.16-.02.25l-.12 1.39c-.02.27-.05.57-.08.9-.01.16-.03.32-.04.48v.01l-38.49 459.93c-.38.36-.76.72-1.15 1.07-37.09 33.71-121.43 41.98-181.33 24.81-20.11-5.76-37.46-14.39-49.35-25.88l-38.81-463.67c24.71 41.02 279 46.12 309.45 0z" fill="#c99681"/><path d="m351.75 579.987-38.49 459.93c-.38.36-.76.72-1.15 1.07-37.09 33.71-121.43 41.98-181.33 24.81 181.3-79.23 217.34-446.44 220.97-485.81z" fill="#977a6e"/><g fill="#3d2a24"><path d="m209.645 616.026-2.85-.938c.066-.2 6.666-20.469 13.087-57.1 3.693-21.098 6.622-43.551 8.703-66.735 4.26-47.511 4.905-97.409 1.917-148.308-.358-6.057-.781-12.289-1.258-18.523-.021-.379-.048-.725-.076-1.073l-.045-.595c-2.347-30.442-6.046-61.661-10.995-92.781-.015-.056-.045-.218-.062-.38-1.856-11.586-3.92-23.387-6.121-34.986l-.078-.41c-.133-.701-.268-1.409-.409-2.116-3.372-17.568-7.209-35.422-11.409-53.077l-.041-.185c-.567-2.43-1.163-4.88-1.757-7.328l2.915-.708c.611 2.515 1.222 5.029 1.803 7.524l.039.174c4.193 17.642 8.027 35.481 11.393 53.023.141.705.277 1.421.413 2.132l.078.41c2.206 11.628 4.274 23.459 6.147 35.164.016.13.025.167.033.202 4.979 31.29 8.688 62.589 11.041 93.12l.044.583c.029.372.058.742.078 1.112.476 6.218.901 12.468 1.26 18.542 2.997 51.047 2.349 101.095-1.924 148.752-2.089 23.268-5.028 45.804-8.736 66.985-6.464 36.871-13.126 57.318-13.193 57.52z"/><path d="m136.378 612.41c-48.124-111.065-51.499-259.17-51.527-260.653l2.999-.058c.029 1.477 3.396 149.004 51.281 259.518l-2.753 1.192z"/><path d="m169.211 615.625-2.997-.132c.026-.6 2.862-60.894 21.655-140.746 11.039-46.901 25.343-91.287 42.515-131.926 21.476-50.824 47.526-95.9 77.425-133.976l2.359 1.853c-67.344 85.758-102.081 191.264-119.364 264.671-18.738 79.592-21.567 139.658-21.594 140.255z"/><path d="m272.224 612.44-2.726-1.253c.594-1.293 59.453-130.339 60.458-221.28l3 .033c-1.013 91.583-60.136 221.201-60.733 222.5z"/></g><path d="m165.072 0c-1.341 52.086-.314 79.509 36.201 140.422 0 0 7.894-52.411-7.983-80.272-23.816-41.79-28.218-60.15-28.218-60.15z" fill="#a7aa5b"/><path d="m248.558 90.574c-20.164 34.782-29.843 56.759-36.207 105.496 0 0 23.102-36.712 26.371-58.897 4.989-33.388 9.836-46.6 9.836-46.6z" fill="#49492b"/><path d="m220.033 229.941c-31.766-33.114-61.506-60.639-71.585-81.442 0 0-1.158 33.081 18.105 49.742 16.417 14.211 53.48 31.7 53.48 31.7z" fill="#a7aa5b"/><path d="m289.838 236.382c30.8-31.485 77.826-65.06 99.106-76.345 0 0-43.275 7.289-61.993 19.209-25.63 16.052-37.114 57.136-37.114 57.136z" fill="#696a3e"/><path d="m86.84 364.317c-.13.37-.25.71-.35 1.02-1.08 2.93-33.1-114.51-47.3-123.24-9.75-5.98 51.92 27.56 60.32 66.27 3.18 14.1-9.24 46.05-12.67 55.95z" fill="#a7aa5b"/><path d="m272.275 187.08c-8.175 11.279-5.84 42.747-5.635 85.722 0 0-24.016-40.381-16.218-58.995 5.416-12.231 21.853-26.727 21.853-26.727z" fill="#a7aa5b"/><path d="m232.598 457.544c5.753-23.753 36.57-41.128 70.399-67.62 0 0-37.757 2.16-52.701 17.557-14.734 15.211-17.698 50.063-17.698 50.063z" fill="#696a3e"/><path d="m303.341 530.647c-22.832-47.902-29.566-62.014-44.486-77.676 0 0 19.87 4.115 27.959 12.809 23.156 25.146 16.528 64.867 16.528 64.867z" fill="#696a3e"/><path d="m385.554 451.66c-13.455 10.222-41.177 28.021-67.524 35.135 0 0 19.721-35.168 41.968-39.048 10.091-1.899 25.556 3.913 25.556 3.913z" fill="#49492b"/><path d="m105.63 513.247c1.34 2.23-91.61-37.88-104.65-33.17-.61.22-.93.32-.98.32.85-.61 48.29-18.56 75.35-5.16 11.21 5.44 26.22 31.771 30.28 38.01z" fill="#a7aa5b"/><path d="m232.59 327.067c-.57-.95-1.18-1.87-1.85-2.76-11.83-16.12-37.81-23.88-69.03-34.85-5.34-1.88-10.84-3.85-16.45-5.97 0 0 5.62-1.4 13.58-2.5 12.4-1.71 30.48-2.67 41.96 3.57 14.34 7.82 25.47 28.86 29.82 38.09 1.2 2.55 1.88 4.2 1.97 4.42z" fill="#696a3e"/><path d="m207.66 414.607c-.42-.63-.84-1.25-1.26-1.87-2.06-3.06-4.05-6.05-5.98-8.96-20.07-30.23-33.98-52.59-45.73-56.81 0 0 17.27 2.15 29.07 7.61 1.45.67 2.81 1.38 4.05 2.15 13.68 8.88 18.21 41.2 19.45 53.28.29 2.87.4 4.6.4 4.6z" fill="#a7aa5b"/><path d="m332.017 303.397c11.891 49.948 17.305 77.971-5.535 143.969 0 0-18.757-50.074-9.379-80.283 14.477-45.408 14.915-63.686 14.915-63.686z" fill="#a7aa5b"/><path d="m139.16 363.577c-.34.71-5.92 12.57-11.45 44.9-3.32 20.1-26.93 41.19-31.88 45.42-.59.51-.91.77-.91.77.17-1.17.34-2.31.52-3.44 7.26-46.91 20.14-62.45 43.72-87.65z" fill="#696a3e"/><path d="m319.182 304.11c-28.856 1.319-63.752 11.619-77.073 18.513 0 0 17.193-22.972 30.17-27.897 17.599-6.898 46.903 9.383 46.903 9.383z" fill="#49492b"/><path d="m248.27 535.027c-.85.68-1.75 1.41-2.68 2.17-9.92 8.18-23.63 20.51-24.21 21.04 6.27-15.05 12.98-25.979 19.33-35.47 8.34-12.48 16.07-22.46 21.4-35.97 0 0 5.59 32.98-13.84 48.23z" fill="#49492b"/><path d="m87.8 408.657c-19.69-21.14-50.1-41.07-63.98-46.76 0 0 28.64-1.76 40.79 4.95 16.39 8.81 22.99 40.81 23.19 41.81z" fill="#49492b"/><path d="m366.91 545.486c-28.856 1.319-63.752 11.619-77.073 18.513 0 0 17.193-22.972 30.17-27.897 17.599-6.898 46.903 9.383 46.903 9.383z" fill="#a7aa5b"/><path d="m184.66 490.557c-19.69-21.14-50.1-41.07-63.98-46.76 0 0 28.64-1.76 40.8 4.95 16.38 8.81 22.98 40.81 23.18 41.81z" fill="#696a3e"/><path d="m169.68 579.507c-12.11-22.521-30.33-33.28-48.85-66.16.57.4 18.62 13.15 29.44 19.89 21.09 12.86 19.41 46.271 19.41 46.271z" fill="#49492b"/><path d="m352.042 576.562c.02-.2.03-.31.03-.31-30.45 46.11-284.74 41.01-309.45 0l38.81 463.66z" fill="#c99681"/><path d="m23.82 361.897s28.64-1.76 40.79 4.95c16.39 8.81 22.99 40.81 23.19 41.81-19.69-21.14-50.1-41.07-63.98-46.76z" fill="url(#a)" opacity=".51"/><path d="m95.44 451.227c7.26-46.91 20.14-62.45 43.72-87.65-.34.71-5.92 12.57-11.45 44.9-3.32 20.1-26.93 41.19-31.88 45.42-.59.51-.91.77-.91.77.17-1.17.34-2.31.52-3.44z" fill="url(#b)" opacity=".51"/><path d="m99.51 308.367c3.18 14.1-9.24 46.05-12.67 55.95-.13.37-.25.71-.35 1.02-1.08 2.93-33.1-114.51-47.3-123.24-9.75-5.98 51.92 27.56 60.32 66.27z" fill="url(#c)" opacity=".51"/><path d="m105.63 513.247c1.34 2.23-91.61-37.88-104.65-33.17-.61.22-.93.32-.98.32.85-.61 48.29-18.56 75.35-5.16 11.21 5.44 26.22 31.771 30.28 38.01z" fill="url(#d)" opacity=".51"/><path d="m161.71 289.457c-5.34-1.88-10.84-3.85-16.45-5.97 0 0 5.62-1.4 13.58-2.5z" fill="url(#e)" opacity=".51"/><path d="m169.68 579.507c-12.11-22.521-30.33-33.28-48.85-66.16.57.4 18.62 13.15 29.44 19.89 21.09 12.86 19.41 46.271 19.41 46.271z" fill="url(#f)" opacity=".51"/><path d="m184.66 490.557c-19.69-21.14-50.1-41.07-63.98-46.76 0 0 28.64-1.76 40.8 4.95 16.38 8.81 22.98 40.81 23.18 41.81z" fill="url(#g)" opacity=".51"/><path d="m183.76 354.577 16.66 49.2c-20.07-30.23-33.98-52.59-45.73-56.81 0 0 17.27 2.15 29.07 7.61z" fill="url(#h)" opacity=".51"/><path d="m245.59 537.197c-9.92 8.18-23.63 20.51-24.21 21.04 6.27-15.05 12.98-25.979 19.33-35.47z" fill="url(#i)" opacity=".51"/><path d="m352.07 576.247s-.01.12-.03.31l-.03.4c0 .08-.01.16-.02.25l-.12 1.39c-.02.27-.05.57-.08.9-.01.16-.03.32-.04.48v.01l-38.49 459.93c-.38.36-.76.72-1.15 1.07-37.09 33.71-121.43 41.98-181.33 24.81-20.11-5.76-37.46-14.39-49.35-25.88l-38.81-463.67c24.71 41.02 279 46.12 309.45 0z" fill="url(#j)" opacity=".4"/></svg>