<svg height="460.265" viewBox="0 0 667.193 460.265" width="667.193" xmlns="http://www.w3.org/2000/svg" xmlns:xlink="http://www.w3.org/1999/xlink"><linearGradient id="a" gradientUnits="userSpaceOnUse" x1="251.367" x2="288.447" y1="445.784" y2="445.784"><stop offset="0" stop-color="#7670b0"/><stop offset=".198" stop-color="#595580"/><stop offset=".406" stop-color="#3f3d56"/><stop offset=".593" stop-color="#2d2c37"/><stop offset=".752" stop-color="#222124"/><stop offset=".863" stop-color="#1e1e1e"/></linearGradient><linearGradient id="b" x1="251.364" x2="424.769" xlink:href="#a" y1="428.089" y2="428.089"/><linearGradient id="c" x1="305.448" x2="313.447" xlink:href="#a" y1="379.532" y2="379.617"/><linearGradient id="d" gradientUnits="userSpaceOnUse" x1="-.596" x2="31.995" y1="210.302" y2="210.476"><stop offset="0" stop-color="#7670b0"/><stop offset=".863" stop-color="#1e1e1e"/></linearGradient><linearGradient id="e" gradientUnits="userSpaceOnUse" x1="280.86" x2="663.888" y1="202.578" y2="248.855"><stop offset=".015" stop-color="#a49acb"/><stop offset="1" stop-color="#7770b1"/></linearGradient><linearGradient id="f" gradientUnits="userSpaceOnUse" x1="602.756" x2="342.364" y1="122.638" y2="133.906"><stop offset=".013" stop-color="#61675a"/><stop offset=".844" stop-color="#868f7a"/></linearGradient><linearGradient id="g" gradientUnits="userSpaceOnUse" x1="102.947" x2="109.947" y1="265.069" y2="265.069"><stop offset=".124" stop-color="#eab2d2"/><stop offset=".844" stop-color="#dc9dc6"/></linearGradient><linearGradient id="h" x1="118.235" x2="125.236" xlink:href="#g" y1="244.45" y2="244.45"/><linearGradient id="i" x1="172.63" x2="178.295" xlink:href="#g" y1="222.409" y2="222.409"/><linearGradient id="j" x1="212.948" x2="223.698" xlink:href="#g" y1="193.012" y2="193.012"/><path d="m424.714 429.241c.002 1.247-.869 2.325-2.088 2.586l-132.259 28.332c-.64.13-1.29.14-1.92.03-.59-.12-1.15-.34-1.67-.66l-34.13-21.21 11.59-1.32 135.21-15.43 25.26 2.58z" fill="#1e1e1e"/><path d="m288.447 447.569v12.62c-.59-.12-1.15-.34-1.67-.66l-34.13-21.21c-.75-.47-1.21-1.28-1.22-2.16l-.06-4.78 12.87 5.62z" fill="url(#a)"/><path d="m252.721 429.702 133.711-27.715c1.299-.269 2.651-.053 3.8.608l33.486 19.254c1.664.957 1.271 3.461-.605 3.863l-132.972 28.494c-1.088.233-2.224.044-3.178-.528l-34.776-20.866c-1.325-.795-.98-2.804.534-3.111z" fill="url(#b)"/><path d="m312.447 436.569-7-5v-109l8 13z" fill="url(#c)"/><path d="m366.447 425.569-54 11v-134l54-11z" fill="#1e1e1e"/><path d="m648.362 18.219 9.742 279.171c.147 4.366-3.247 8.026-7.611 8.222-194.068 8.739-420.857 58.028-619.762 115.585-7.775 2.25-15.604-3.355-15.987-11.441l-14.726-310.162c-.34-7.155 4.087-13.759 10.914-15.928 154.515-49.097 485.515-90.097 623.822-79.892 7.539.556 13.353 6.889 13.608 14.445z" fill="url(#d)"/><path d="m657.288 14.013 9.9 283.858c.144 4.262-3.183 7.663-7.433 8.018-199.308 16.68-406.308 55.68-625.835 113.897-4.862 1.289-9.702-2.057-9.941-7.082l-15.051-317.007c-.286-6.033 3.489-11.459 9.197-13.432 129.322-44.696 484.322-92.696 627.915-80.274 6.239.54 11.037 5.764 11.248 12.022z" fill="#1e1e1e"/><path d="m641.394 28.628 9.404 257.598c.136 4.048-.575 7.025-7.06 7.616-194.194 15.97-398.769 53.937-594.476 107.433-6.921 2.032-9.216-1.954-9.443-6.727l-14.296-288.329c-.717-8.672 3.259-11.051 8.737-12.759 149.336-46.57 448.406-83.589 596.45-76.252 5.941.294 10.746 3.379 10.684 11.42z" fill="url(#e)"/><path d="m602.866 181.296c.057 2.024-1.512 3.722-3.534 3.827l-4.963.256-11.9.783-23.821 1.576-23.813 1.888-11.901.96-11.902 1.095-23.805 2.211-23.796 2.492c-7.935.782-15.861 1.73-23.788 2.648-2.708.323-5.405.635-8.113.937-5.229.605-10.447 1.2-15.665 1.878-20.744 2.547-41.472 5.334-62.174 8.298-2.168.31-4.133-1.303-4.247-3.49l-7.209-137.824c-.103-1.968 1.343-3.679 3.301-3.904 18.183-2.083 36.393-4.025 54.638-5.792 8.3-.862 16.64-1.537 24.961-2.306.791-.077 1.583-.144 2.374-.211 7.529-.691 15.057-1.372 22.606-1.939l25-1.962 25.049-1.691 12.524-.83 12.544-.684 25.089-1.348 25.128-1.014 12.553-.497 7.352-.199c2.056-.056 3.769 1.565 3.827 3.621l3.683 131.222z" fill="url(#f)"/><path d="m412.527 82.606c-1.262 0-2.346-.952-2.483-2.235-.146-1.373.848-2.604 2.221-2.751 43.024-4.585 107.214-10.051 168.682-10.051 1.381 0 2.5 1.119 2.5 2.5s-1.119 2.5-2.5 2.5c-61.249 0-125.249 5.45-168.153 10.023-.09.01-.179.014-.268.014z" fill="#959e88"/><path d="m362.944 88.57c-1.225 0-2.295-.902-2.472-2.15-.194-1.367.758-2.632 2.125-2.826.116-.016 11.769-1.661 30.681-3.859 1.37-.158 2.613.823 2.772 2.195.16 1.371-.823 2.613-2.194 2.772-18.851 2.192-30.443 3.827-30.558 3.844-.119.017-.237.025-.354.025z" fill="#afb5a3"/><path d="m559.059 91.789c-1.358 0-2.471-1.087-2.499-2.45-.028-1.38 1.069-2.522 2.449-2.549 7.653-.153 15.208-.23 22.457-.23 1.381 0 2.5 1.119 2.5 2.5s-1.119 2.5-2.5 2.5c-7.215 0-14.737.077-22.356.229-.017 0-.034 0-.051 0z" fill="#afb5a3"/><path d="m455.522 97.516c-1.284 0-2.377-.984-2.488-2.287-.117-1.376.903-2.586 2.278-2.704 30.516-2.607 59.664-4.383 86.635-5.28 1.366-.042 2.536 1.036 2.582 2.416s-1.036 2.536-2.416 2.582c-26.885.894-55.946 2.665-86.375 5.264-.073.006-.145.009-.216.009z" fill="#959e88"/><path d="m363.464 107.559c-1.225 0-2.295-.902-2.472-2.15-.194-1.367.758-2.632 2.125-2.826.297-.042 30.229-4.257 72.864-8.313 1.378-.13 2.595.878 2.726 2.252.131 1.375-.877 2.595-2.252 2.726-42.513 4.044-72.341 8.244-72.637 8.286-.119.017-.237.025-.354.025z" fill="#959e88"/><path d="m427.972 120.639c-1.269 0-2.356-.963-2.485-2.253-.137-1.374.866-2.599 2.24-2.735 39.344-3.917 98.083-8.587 154.48-8.587 1.381 0 2.5 1.119 2.5 2.5s-1.119 2.5-2.5 2.5c-56.193 0-114.753 4.656-153.985 8.562-.084.008-.168.013-.251.013z" fill="#959e88"/><path d="m364.204 128.064c-1.225 0-2.295-.902-2.472-2.15-.194-1.367.758-2.632 2.125-2.826.17-.024 17.271-2.436 43.838-5.344 1.367-.151 2.607.84 2.757 2.213s-.841 2.607-2.213 2.757c-26.481 2.899-43.512 5.301-43.681 5.325-.119.017-.237.025-.354.025z" fill="#6e7563"/><path d="m364.723 148.054c-1.216 0-2.282-.889-2.469-2.128-.205-1.365.735-2.639 2.1-2.844.627-.094 63.535-9.484 138.061-14.253 1.378-.09 2.566.957 2.655 2.335.088 1.378-.957 2.566-2.335 2.655-74.315 4.756-137.012 14.113-137.636 14.207-.126.019-.251.028-.375.028z" fill="#afb5a3"/><path d="m365.944 168.57c-1.212 0-2.277-.883-2.468-2.119-.211-1.365.724-2.642 2.089-2.853.418-.065 42.503-6.528 98.271-11.547 1.372-.124 2.59.891 2.714 2.266s-.891 2.59-2.266 2.714c-55.599 5.005-97.538 11.444-97.955 11.509-.129.02-.258.03-.385.03z" fill="#959e88"/><path d="m366.945 189.57c-1.205 0-2.266-.873-2.465-2.1-.221-1.363.705-2.647 2.068-2.868.597-.097 60.578-9.752 133.727-15.456 1.378-.105 2.58.922 2.687 2.298s-.922 2.579-2.298 2.687c-72.945 5.688-132.72 15.31-133.315 15.406-.135.022-.27.033-.403.033z" fill="#6e7563"/><path d="m508.95 267.57c-.903 0-1.775-.491-2.22-1.347-.637-1.225-.16-2.734 1.065-3.371l20.821-10.827-19.858-10.757c-1.214-.658-1.665-2.175-1.008-3.389.658-1.214 2.175-1.665 3.389-1.008l24 13c.813.441 1.317 1.294 1.309 2.219s-.526 1.77-1.347 2.197l-25 13c-.368.192-.763.282-1.151.282z" fill="#b2afe2"/><path d="m492.95 277.57c-.178 0-.359-.019-.54-.059-1.349-.297-2.201-1.63-1.905-2.979l11-50c.297-1.349 1.631-2.201 2.979-1.905 1.349.297 2.201 1.63 1.905 2.979l-11 50c-.257 1.167-1.291 1.963-2.439 1.963z" fill="#b2afe2"/><path d="m484.945 268.57c-.459 0-.924-.126-1.34-.391l-22-14c-.76-.484-1.201-1.339-1.154-2.238.046-.9.573-1.704 1.379-2.107l24-12c1.234-.618 2.737-.117 3.354 1.118s.117 2.737-1.118 3.354l-20.051 10.025 18.275 11.63c1.165.741 1.508 2.286.767 3.451-.477.749-1.285 1.158-2.112 1.158z" fill="#b2afe2"/><path d="m389.958 281.132c.102 2.861-1.918 5.356-4.738 5.853-58.661 10.354-117.144 21.862-175.327 34.585-39.739 8.684-79.386 17.858-118.754 27.653-.023.006-.045.011-.068.017-3.486.857-6.9-1.639-7.12-5.223l-11.412-185.675c-.175-2.841 1.757-5.387 4.54-5.981 31.391-6.709 62.818-13.04 94.293-19.083 68.298-13.125 136.857-24.618 205.679-34.649 3.387-.494 6.455 2.069 6.577 5.489l6.33 177.013z" fill="#fff"/><ellipse cx="331.731" cy="120.251" fill="#dc9dc6" rx="6.118" ry="5.311" transform="matrix(.20141985 -.979505 .979505 .20141985 147.125 420.961)"/><ellipse cx="349.043" cy="117.654" fill="#f3caad" rx="6.118" ry="5.311" transform="matrix(.20141985 -.979505 .979505 .20141985 163.494 435.845)"/><ellipse cx="366.355" cy="115.058" fill="#61675a" rx="6.118" ry="5.311" transform="matrix(.20141985 -.979505 .979505 .20141985 179.862 450.729)"/><g fill="#cecef4"><path d="m93.021 254.399c-.446 0-.853-.301-.968-.753-.136-.535.187-1.08.722-1.216 0 0 2.069-.528 5.822-1.463.537-.135 1.079.193 1.212.729s-.193 1.079-.729 1.212c-3.744.932-5.809 1.46-5.811 1.46-.083.021-.166.031-.248.031z"/><path d="m110.041 250.18c-.45 0-.86-.307-.971-.764-.131-.537.198-1.078.735-1.208 3.344-.814 7.11-1.724 11.233-2.708.54-.129 1.077.203 1.205.74s-.203 1.077-.74 1.205c-4.12.984-7.883 1.892-11.224 2.706-.08.019-.159.029-.237.029zm22.467-5.365c-.454 0-.865-.311-.973-.772-.126-.538.208-1.076.746-1.202 3.584-.839 7.345-1.713 11.254-2.61.539-.124 1.075.212 1.198.751.124.538-.212 1.075-.751 1.198-3.906.897-7.664 1.77-11.245 2.608-.077.018-.153.027-.229.027zm22.51-5.169c-.457 0-.87-.316-.975-.781-.121-.539.217-1.074.756-1.195 3.671-.826 7.436-1.664 11.276-2.509.538-.119 1.073.222 1.191.762.119.539-.222 1.073-.762 1.192-3.837.844-7.599 1.682-11.267 2.507-.074.017-.148.025-.22.025zm22.554-4.96c-.461 0-.876-.321-.977-.79-.116-.54.228-1.072.768-1.188 3.724-.799 7.496-1.598 11.302-2.393.541-.113 1.071.234 1.183.775.113.541-.234 1.07-.775 1.183-3.802.794-7.571 1.592-11.291 2.391-.071.015-.141.022-.211.022zm22.603-4.716c-.466 0-.883-.328-.979-.802-.109-.541.24-1.069.782-1.178 3.768-.762 7.551-1.515 11.334-2.253.543-.106 1.067.248 1.173.79s-.248 1.067-.79 1.173c-3.778.737-7.557 1.489-11.32 2.25-.067.014-.134.02-.199.02zm22.676-4.42c-.472 0-.892-.336-.982-.816-.102-.543.256-1.065.799-1.167 3.81-.712 7.605-1.404 11.368-2.072.542-.096 1.063.266 1.159.81s-.266 1.063-.81 1.159c-3.757.666-7.546 1.358-11.35 2.069-.062.012-.124.017-.185.017z"/><path d="m245.519 221.535c-.48 0-.904-.347-.985-.836-.091-.545.278-1.06.823-1.151 1.993-.331 3.971-.654 5.933-.966.549-.086 1.058.285 1.145.83s-.285 1.058-.83 1.145c-1.958.312-3.932.634-5.92.964-.055.009-.111.014-.165.014z"/><path d="m302.87 177.456c-1.195 0-2.252-.86-2.461-2.078-.233-1.361.681-2.653 2.042-2.886 23.329-4 43.773-6.83 60.766-8.411 1.375-.129 2.593.883 2.721 2.258s-.883 2.593-2.258 2.721c-16.865 1.569-37.181 4.382-60.384 8.361-.143.025-.285.036-.426.036z"/><path d="m267.445 184.07c-1.16 0-2.2-.812-2.445-1.992-.281-1.352.588-2.675 1.94-2.956.069-.014 6.991-1.448 17.656-3.435 1.359-.253 2.663.642 2.916 2 .253 1.357-.643 2.663-2 2.916-10.61 1.977-17.487 3.401-17.555 3.416-.171.036-.342.053-.51.053z"/></g><path d="m107.445 288.069c-1.325 0-2.43-1.041-2.495-2.378l-2-41c-.067-1.379.996-2.551 2.375-2.619 1.377-.067 2.552.996 2.619 2.375l2 41c.067 1.379-.996 2.551-2.375 2.619-.042.002-.083.003-.124.003z" fill="url(#g)"/><path d="m122.734 267.451c-1.325 0-2.43-1.041-2.495-2.378l-2-41c-.067-1.379.996-2.551 2.375-2.619 1.378-.072 2.552.996 2.619 2.375l2 41c.067 1.379-.996 2.551-2.375 2.619-.042.002-.083.003-.124.003z" fill="url(#h)"/><path d="m144.461 318.872c-1.312 0-2.413-1.022-2.493-2.348l-7.659-125.947c-.084-1.378.965-2.563 2.344-2.647 1.355-.083 2.563.966 2.646 2.344l7.659 125.947c.084 1.378-.965 2.563-2.344 2.647-.051.003-.103.004-.153.004z" fill="#878e7d"/><path d="m161.105 275.016c-1.325 0-2.43-1.041-2.495-2.378l-2-41c-.067-1.379.996-2.551 2.375-2.619 1.391-.075 2.551.996 2.619 2.375l2 41c.067 1.379-.996 2.551-2.375 2.619-.042.002-.083.003-.124.003z" fill="#878e7d"/><path d="m175.792 230.07c-1.307 0-2.406-1.016-2.492-2.339l-.665-10.322c-.089-1.378.956-2.567 2.334-2.655 1.347-.102 2.566.956 2.656 2.334l.665 10.322c.089 1.378-.956 2.567-2.334 2.655-.055.004-.109.005-.164.005z" fill="url(#i)"/><path d="m199.358 258.758c-1.325 0-2.43-1.041-2.495-2.378l-2-41c-.067-1.379.996-2.551 2.375-2.619 1.392-.064 2.551.996 2.619 2.375l2 41c.067 1.379-.996 2.551-2.375 2.619-.042.002-.083.003-.124.003z" fill="#878e7d"/><path d="m221.196 243.955c-1.313 0-2.415-1.024-2.494-2.352l-5.75-96.885c-.082-1.378.969-2.562 2.347-2.644 1.381-.084 2.563.969 2.644 2.348l5.751 96.885c.082 1.378-.969 2.562-2.347 2.644-.051.003-.101.004-.15.004z" fill="url(#j)"/><path d="m243.052 263.624c-1.325 0-2.43-1.041-2.495-2.378l-1.087-22.282c-.067-1.379.996-2.551 2.375-2.619 1.381-.065 2.552.996 2.619 2.375l1.087 22.282c.067 1.379-.996 2.551-2.375 2.619-.042.002-.083.003-.124.003z" fill="#878e7d"/><path d="m270.221 208.111c-1.16 0-2.2-.812-2.445-1.992-.281-1.352.588-2.675 1.94-2.956.531-.11 53.63-11.074 96.277-15.041 1.375-.129 2.593.883 2.721 2.258s-.883 2.593-2.258 2.721c-42.37 3.941-95.195 14.849-95.723 14.959-.171.036-.342.053-.51.053z" fill="#cecef4"/><path d="m272.833 232.09c-1.156 0-2.195-.807-2.443-1.983-.286-1.351.578-2.677 1.928-2.963.182-.038 18.446-3.89 41.921-7.817 1.362-.229 2.65.691 2.878 2.053s-.692 2.65-2.053 2.878c-23.371 3.91-41.531 7.739-41.711 7.777-.174.037-.348.055-.52.055z" fill="#cecef4"/><path d="m275.609 256.131c-1.158 0-2.197-.809-2.444-1.987-.283-1.351.582-2.677 1.933-2.96.325-.068 32.878-6.868 67.575-11.579 1.367-.186 2.628.773 2.814 2.141s-.773 2.628-2.141 2.814c-34.513 4.686-66.898 11.451-67.221 11.518-.173.036-.346.054-.516.054z" fill="#cecef4"/></svg>